<svg xmlns="http://www.w3.org/2000/svg" viewBox="0 0 150 150">
<!-- SVG created with Arrow, by QuiverAI (https://quiver.ai) -->
  <style type="text/css">.cls-0 {fill:url(#SVGID_1_);}
.cls-1 {fill:#A9C0CA;}
.cls-2 {fill:none;stroke:#789DA6;stroke-width:1.3144;stroke-miterlimit:10;}
.cls-3 {fill:url(#SVGID_2_);}
.cls-4 {fill:url(#SVGID_3_);}
.cls-5 {fill:url(#SVGID_4_);}
.cls-6 {fill:url(#SVGID_5_);}
.cls-7 {opacity:0.4;fill:url(#SVGID_6_);enable-background:new    ;}
.cls-8 {fill:url(#SVGID_7_);}
.cls-9 {fill:url(#SVGID_8_);}</style>
  <linearGradient id="SVGID_1_" x1="75" x2="75" y1="-22" y2="128" gradientTransform="matrix(1 0 0 -1 0 128)" gradientUnits="userSpaceOnUse">
    <stop stop-color="#D5E4F6" offset="0"/>
    <stop stop-color="#FAF4ED" offset="1"/>
  </linearGradient>
  <polygon class="cls-1" points="23.7 58.7 23.7 102.6 109.5 102.7 109.5 102.7 109.5 102.7 109.5 102.7 109.5 102.7 109.6 102.7 109.6 102.7 109.6 102.7 109.6 102.7 109.6 102.7 109.6 102.7 109.6 102.7 109.6 102.7 109.6 102.7 109.6 102.7 109.6 102.7 109.6 102.7 110.8 102.7 109.5 102.7 109.6 102.7 109.5 102.7 109.5 102.7"/>
  <path class="cls-2" d="m23.7 66.7 71.3 36.4"/>
  <polyline class="cls-2" points="49.1 70.6 44.3 77.4 80.4 95.7 84.4 89"/>
  <line class="cls-2" x1="23.7" x2="47.1" y1="86.7" y2="86.7"/>
  <linearGradient id="SVGID_2_" x1="88.07" x2="88.07" y1="31.49" y2="7.603" gradientTransform="matrix(1 0 0 -1 0 128)" gradientUnits="userSpaceOnUse">
    <stop stop-color="#8FB4BE" offset="0"/>
    <stop stop-color="#85B1BB" offset="1"/>
  </linearGradient>
  <polygon class="cls-3" points="150 102.7 23.7 102.7 23.7 116.1 150 116.1"/>
  <linearGradient id="SVGID_3_" x1="88.18" x2="87.38" y1="11.9" y2="-11.54" gradientTransform="matrix(1 0 0 -1 0 128)" gradientUnits="userSpaceOnUse">
    <stop stop-color="#648EA0" offset="0"/>
    <stop stop-color="#3D7383" offset="1"/>
  </linearGradient>
  <polygon class="cls-4" points="23.7 128.6 150 128.6 150 116.1 23.7 116.1"/>
  <linearGradient id="SVGID_4_" x1="85.69" x2="74.05" y1="75.28" y2="45.73" gradientTransform="matrix(1 0 0 -1 0 128)" gradientUnits="userSpaceOnUse">
    <stop stop-color="#FCBA42" offset="0"/>
    <stop stop-color="#EB9033" offset="1"/>
  </linearGradient>
  <path class="cls-5" d="m39.9 60c1.1 4.7 4 8.6 8.1 11l3 1.6 49.9 25.4c5.3 2.8 13.7 3.5 18.9 0.8 3-1.2 5.9-3.3 8.1-6.1 0.9-1.1 1.5-2 1.5-3.1v-0.6h-0.1c-0.2-2.7-65-31.5-65.7-33s-1.6-1.5-2.1-3.8-1.8-2.9-2.5-3.2l-17.8-8.6c-2.8-1-5.2 0.7-4.2 4.9 0.5 2.3 2 8.8 2.2 11 0.2 1.4 0.4 2.5 0.7 3.7z"/>
  <linearGradient id="SVGID_5_" x1="77.71" x2="72.6" y1="57.69" y2="36.06" gradientTransform="matrix(1 0 0 -1 0 128)" gradientUnits="userSpaceOnUse">
    <stop stop-color="#E68831" offset="0"/>
    <stop stop-color="#772D17" offset="1"/>
  </linearGradient>
  <path class="cls-6" d="m40.4 61.3c1.2 3.8 3.6 7.1 7.6 9.6l3 1.6 49.9 25.5c4.7 2.4 11.1 2.8 14.8 1.3-0.7-0.2-1.4-0.5-2.1-0.8l-72.3-36.5c-0.3-0.1-0.7-0.4-0.9-0.7z"/>
  <linearGradient id="SVGID_6_" x1="109.7" x2="110.4" y1="31.76" y2="21.04" gradientTransform="matrix(1 0 0 -1 0 128)" gradientUnits="userSpaceOnUse">
    <stop stop-color="#fff" offset="0"/>
    <stop stop-color="#BCDBE5" offset="1"/>
  </linearGradient>
  <path class="cls-7" d="m92.4 102.7h33.3c-0.2-0.1-1.7-1.4-2.9-1.4-1.3 0.1-2 0.7-3.4-0.1s-1.9-1.6-4.4-1.3c-2.2 0.4-5 2.7-5.5 2.7l-17.1 0.1z"/>
  <linearGradient id="SVGID_7_" x1="111.8" x2="111.4" y1="24.49" y2="14.31" gradientTransform="matrix(1 0 0 -1 0 128)" gradientUnits="userSpaceOnUse">
    <stop stop-color="#ABB7B9" offset="0"/>
    <stop stop-color="#9FC1CC" offset="1"/>
  </linearGradient>
  <path class="cls-8" d="m125.7 102.7c-0.7 0.1-1.8 0.8-4 1.1-1 0.1-1.8 1.4-4.2 1.5-1.9 0-2.6-1.3-4.6-1-1.8 0.2-2.3 1-5.1 1-2.2-0.1-3.4 0.5-5.9 0.2-1.9-0.2-3.8-1.5-5.3-1.6-1.3 0.1-3.8-0.9-4.2-1.2h33.3z"/>
  <linearGradient id="SVGID_8_" x1="111" x2="111" y1="23.28" y2="8.517" gradientTransform="matrix(1 0 0 -1 0 128)" gradientUnits="userSpaceOnUse">
    <stop stop-color="#AFB5B6" offset="0"/>
    <stop stop-color="#9DC2CD" offset="1"/>
  </linearGradient>
  <path class="cls-9" d="m104.1 106.8c-2.2 3.5-2.9 7.2-2.2 9.3l18.6 0.1c-0.6-6.1-2.8-11.7-6.5-12.1-2.6-0.2-3.5 1.2-7 1.2-1.4 0-2.4 0-2.9 1.5z"/>
</svg>