<svg xmlns="http://www.w3.org/2000/svg" viewBox="0 0 1024 1024" width="1024" height="1024">
  <title>compaction-quality</title>
  <defs>
    <clipPath id="squircle"><path d="M 1024.00 512.00 L 1023.89 642.37 L 1023.56 683.99 L 1023.01 714.20 L 1022.24 738.75 L 1021.25 759.76 L 1020.04 778.30 L 1018.61 794.97 L 1016.95 810.17 L 1015.06 824.18 L 1012.95 837.17 L 1010.61 849.30 L 1008.04 860.66 L 1005.23 871.36 L 1002.19 881.45 L 998.90 890.99 L 995.37 900.02 L 991.59 908.59 L 987.56 916.73 L 983.27 924.46 L 978.72 931.81 L 973.90 938.79 L 968.79 945.43 L 963.41 951.73 L 957.72 957.72 L 951.73 963.41 L 945.43 968.79 L 938.79 973.90 L 931.81 978.72 L 924.46 983.27 L 916.73 987.56 L 908.59 991.59 L 900.02 995.37 L 890.99 998.90 L 881.45 1002.19 L 871.36 1005.23 L 860.66 1008.04 L 849.30 1010.61 L 837.17 1012.95 L 824.18 1015.06 L 810.17 1016.95 L 794.97 1018.61 L 778.30 1020.04 L 759.76 1021.25 L 738.75 1022.24 L 714.20 1023.01 L 683.99 1023.56 L 642.37 1023.89 L 512.00 1024.00 L 381.63 1023.89 L 340.01 1023.56 L 309.80 1023.01 L 285.25 1022.24 L 264.24 1021.25 L 245.70 1020.04 L 229.03 1018.61 L 213.83 1016.95 L 199.82 1015.06 L 186.83 1012.95 L 174.70 1010.61 L 163.34 1008.04 L 152.64 1005.23 L 142.55 1002.19 L 133.01 998.90 L 123.98 995.37 L 115.41 991.59 L 107.27 987.56 L 99.54 983.27 L 92.19 978.72 L 85.21 973.90 L 78.57 968.79 L 72.27 963.41 L 66.28 957.72 L 60.59 951.73 L 55.21 945.43 L 50.10 938.79 L 45.28 931.81 L 40.73 924.46 L 36.44 916.73 L 32.41 908.59 L 28.63 900.02 L 25.10 890.99 L 21.81 881.45 L 18.77 871.36 L 15.96 860.66 L 13.39 849.30 L 11.05 837.17 L 8.94 824.18 L 7.05 810.17 L 5.39 794.97 L 3.96 778.30 L 2.75 759.76 L 1.76 738.75 L 0.99 714.20 L 0.44 683.99 L 0.11 642.37 L 0.00 512.00 L 0.11 381.63 L 0.44 340.01 L 0.99 309.80 L 1.76 285.25 L 2.75 264.24 L 3.96 245.70 L 5.39 229.03 L 7.05 213.83 L 8.94 199.82 L 11.05 186.83 L 13.39 174.70 L 15.96 163.34 L 18.77 152.64 L 21.81 142.55 L 25.10 133.01 L 28.63 123.98 L 32.41 115.41 L 36.44 107.27 L 40.73 99.54 L 45.28 92.19 L 50.10 85.21 L 55.21 78.57 L 60.59 72.27 L 66.28 66.28 L 72.27 60.59 L 78.57 55.21 L 85.21 50.10 L 92.19 45.28 L 99.54 40.73 L 107.27 36.44 L 115.41 32.41 L 123.98 28.63 L 133.01 25.10 L 142.55 21.81 L 152.64 18.77 L 163.34 15.96 L 174.70 13.39 L 186.83 11.05 L 199.82 8.94 L 213.83 7.05 L 229.03 5.39 L 245.70 3.96 L 264.24 2.75 L 285.25 1.76 L 309.80 0.99 L 340.01 0.44 L 381.63 0.11 L 512.00 0.00 L 642.37 0.11 L 683.99 0.44 L 714.20 0.99 L 738.75 1.76 L 759.76 2.75 L 778.30 3.96 L 794.97 5.39 L 810.17 7.05 L 824.18 8.94 L 837.17 11.05 L 849.30 13.39 L 860.66 15.96 L 871.36 18.77 L 881.45 21.81 L 890.99 25.10 L 900.02 28.63 L 908.59 32.41 L 916.73 36.44 L 924.46 40.73 L 931.81 45.28 L 938.79 50.10 L 945.43 55.21 L 951.73 60.59 L 957.72 66.28 L 963.41 72.27 L 968.79 78.57 L 973.90 85.21 L 978.72 92.19 L 983.27 99.54 L 987.56 107.27 L 991.59 115.41 L 995.37 123.98 L 998.90 133.01 L 1002.19 142.55 L 1005.23 152.64 L 1008.04 163.34 L 1010.61 174.70 L 1012.95 186.83 L 1015.06 199.82 L 1016.95 213.83 L 1018.61 229.03 L 1020.04 245.70 L 1021.25 264.24 L 1022.24 285.25 L 1023.01 309.80 L 1023.56 340.01 L 1023.89 381.63 Z"/></clipPath>
    <clipPath id="bodyClip"><path d="M 206 386 L 206 776 Q 512 864 818 776 L 818 386 Q 512 298 206 386 Z"/></clipPath>

    <radialGradient id="tile" cx="0.36" cy="0.28" r="0.92">
      <stop offset="0" stop-color="#FFFEFB"/>
      <stop offset="0.52" stop-color="#F7F2EA"/>
      <stop offset="1" stop-color="#E6DDD0"/>
    </radialGradient>
    <radialGradient id="vig" cx="0.5" cy="0.46" r="0.72">
      <stop offset="0.55" stop-color="#C9BEAC" stop-opacity="0"/>
      <stop offset="1" stop-color="#BCAF9A" stop-opacity="0.34"/>
    </radialGradient>

    <linearGradient id="wall" x1="0" y1="386" x2="0" y2="820" gradientUnits="userSpaceOnUse">
      <stop offset="0" stop-color="#565F66"/>
      <stop offset="0.34" stop-color="#3B434A"/>
      <stop offset="0.78" stop-color="#262C31"/>
      <stop offset="1" stop-color="#1A1F23"/>
    </linearGradient>
    <linearGradient id="round" x1="206" y1="0" x2="818" y2="0" gradientUnits="userSpaceOnUse">
      <stop offset="0" stop-color="#000000" stop-opacity="0.42"/>
      <stop offset="0.16" stop-color="#000000" stop-opacity="0.12"/>
      <stop offset="0.38" stop-color="#FFFFFF" stop-opacity="0.05"/>
      <stop offset="0.72" stop-color="#000000" stop-opacity="0.06"/>
      <stop offset="1" stop-color="#000000" stop-opacity="0.34"/>
    </linearGradient>
    <linearGradient id="cap" x1="0" y1="342" x2="0" y2="430" gradientUnits="userSpaceOnUse">
      <stop offset="0" stop-color="#6E777E"/>
      <stop offset="0.62" stop-color="#59626A"/>
      <stop offset="1" stop-color="#464F56"/>
    </linearGradient>
    <linearGradient id="seam0" x1="206" y1="0" x2="818" y2="0" gradientUnits="userSpaceOnUse"><stop offset="0" stop-color="#9E2E0C"/><stop offset="0.28" stop-color="#E85A26"/><stop offset="0.55" stop-color="#FF9865"/><stop offset="1" stop-color="#AE350F"/></linearGradient>
    <linearGradient id="seam1" x1="206" y1="0" x2="818" y2="0" gradientUnits="userSpaceOnUse"><stop offset="0" stop-color="#9E2E0C"/><stop offset="0.28" stop-color="#E85A26"/><stop offset="0.55" stop-color="#FF9865"/><stop offset="1" stop-color="#AE350F"/></linearGradient>
    <linearGradient id="seam2" x1="206" y1="0" x2="818" y2="0" gradientUnits="userSpaceOnUse"><stop offset="0" stop-color="#A8300C"/><stop offset="0.2" stop-color="#F0682F"/><stop offset="0.42" stop-color="#FFD3B2"/><stop offset="0.6" stop-color="#FF8B4F"/><stop offset="1" stop-color="#B8380F"/></linearGradient>
    <linearGradient id="seam3" x1="206" y1="0" x2="818" y2="0" gradientUnits="userSpaceOnUse"><stop offset="0" stop-color="#9E2E0C"/><stop offset="0.28" stop-color="#E85A26"/><stop offset="0.55" stop-color="#FF9865"/><stop offset="1" stop-color="#AE350F"/></linearGradient>
    <linearGradient id="seam4" x1="206" y1="0" x2="818" y2="0" gradientUnits="userSpaceOnUse"><stop offset="0" stop-color="#9E2E0C"/><stop offset="0.28" stop-color="#E85A26"/><stop offset="0.55" stop-color="#FF9865"/><stop offset="1" stop-color="#AE350F"/></linearGradient>

    <filter id="soft" x="-40%" y="-40%" width="180%" height="180%">
      <feGaussianBlur stdDeviation="18"/></filter>
    <filter id="softer" x="-60%" y="-60%" width="220%" height="220%">
      <feGaussianBlur stdDeviation="42"/></filter>
    <filter id="tight" x="-40%" y="-40%" width="180%" height="180%">
      <feGaussianBlur stdDeviation="7"/></filter>
    <filter id="rim" x="-20%" y="-20%" width="140%" height="140%">
      <feGaussianBlur stdDeviation="3"/></filter>
  </defs>

  <g clip-path="url(#squircle)">

    <g id="bg">
      <rect width="1024" height="1024" fill="url(#tile)"/>
      <rect width="1024" height="1024" fill="url(#vig)"/>
      <path d="M 1024.00 512.00 L 1023.89 642.37 L 1023.56 683.99 L 1023.01 714.20 L 1022.24 738.75 L 1021.25 759.76 L 1020.04 778.30 L 1018.61 794.97 L 1016.95 810.17 L 1015.06 824.18 L 1012.95 837.17 L 1010.61 849.30 L 1008.04 860.66 L 1005.23 871.36 L 1002.19 881.45 L 998.90 890.99 L 995.37 900.02 L 991.59 908.59 L 987.56 916.73 L 983.27 924.46 L 978.72 931.81 L 973.90 938.79 L 968.79 945.43 L 963.41 951.73 L 957.72 957.72 L 951.73 963.41 L 945.43 968.79 L 938.79 973.90 L 931.81 978.72 L 924.46 983.27 L 916.73 987.56 L 908.59 991.59 L 900.02 995.37 L 890.99 998.90 L 881.45 1002.19 L 871.36 1005.23 L 860.66 1008.04 L 849.30 1010.61 L 837.17 1012.95 L 824.18 1015.06 L 810.17 1016.95 L 794.97 1018.61 L 778.30 1020.04 L 759.76 1021.25 L 738.75 1022.24 L 714.20 1023.01 L 683.99 1023.56 L 642.37 1023.89 L 512.00 1024.00 L 381.63 1023.89 L 340.01 1023.56 L 309.80 1023.01 L 285.25 1022.24 L 264.24 1021.25 L 245.70 1020.04 L 229.03 1018.61 L 213.83 1016.95 L 199.82 1015.06 L 186.83 1012.95 L 174.70 1010.61 L 163.34 1008.04 L 152.64 1005.23 L 142.55 1002.19 L 133.01 998.90 L 123.98 995.37 L 115.41 991.59 L 107.27 987.56 L 99.54 983.27 L 92.19 978.72 L 85.21 973.90 L 78.57 968.79 L 72.27 963.41 L 66.28 957.72 L 60.59 951.73 L 55.21 945.43 L 50.10 938.79 L 45.28 931.81 L 40.73 924.46 L 36.44 916.73 L 32.41 908.59 L 28.63 900.02 L 25.10 890.99 L 21.81 881.45 L 18.77 871.36 L 15.96 860.66 L 13.39 849.30 L 11.05 837.17 L 8.94 824.18 L 7.05 810.17 L 5.39 794.97 L 3.96 778.30 L 2.75 759.76 L 1.76 738.75 L 0.99 714.20 L 0.44 683.99 L 0.11 642.37 L 0.00 512.00 L 0.11 381.63 L 0.44 340.01 L 0.99 309.80 L 1.76 285.25 L 2.75 264.24 L 3.96 245.70 L 5.39 229.03 L 7.05 213.83 L 8.94 199.82 L 11.05 186.83 L 13.39 174.70 L 15.96 163.34 L 18.77 152.64 L 21.81 142.55 L 25.10 133.01 L 28.63 123.98 L 32.41 115.41 L 36.44 107.27 L 40.73 99.54 L 45.28 92.19 L 50.10 85.21 L 55.21 78.57 L 60.59 72.27 L 66.28 66.28 L 72.27 60.59 L 78.57 55.21 L 85.21 50.10 L 92.19 45.28 L 99.54 40.73 L 107.27 36.44 L 115.41 32.41 L 123.98 28.63 L 133.01 25.10 L 142.55 21.81 L 152.64 18.77 L 163.34 15.96 L 174.70 13.39 L 186.83 11.05 L 199.82 8.94 L 213.83 7.05 L 229.03 5.39 L 245.70 3.96 L 264.24 2.75 L 285.25 1.76 L 309.80 0.99 L 340.01 0.44 L 381.63 0.11 L 512.00 0.00 L 642.37 0.11 L 683.99 0.44 L 714.20 0.99 L 738.75 1.76 L 759.76 2.75 L 778.30 3.96 L 794.97 5.39 L 810.17 7.05 L 824.18 8.94 L 837.17 11.05 L 849.30 13.39 L 860.66 15.96 L 871.36 18.77 L 881.45 21.81 L 890.99 25.10 L 900.02 28.63 L 908.59 32.41 L 916.73 36.44 L 924.46 40.73 L 931.81 45.28 L 938.79 50.10 L 945.43 55.21 L 951.73 60.59 L 957.72 66.28 L 963.41 72.27 L 968.79 78.57 L 973.90 85.21 L 978.72 92.19 L 983.27 99.54 L 987.56 107.27 L 991.59 115.41 L 995.37 123.98 L 998.90 133.01 L 1002.19 142.55 L 1005.23 152.64 L 1008.04 163.34 L 1010.61 174.70 L 1012.95 186.83 L 1015.06 199.82 L 1016.95 213.83 L 1018.61 229.03 L 1020.04 245.70 L 1021.25 264.24 L 1022.24 285.25 L 1023.01 309.80 L 1023.56 340.01 L 1023.89 381.63 Z" fill="none" stroke="#FFFFFF" stroke-opacity="0.75" stroke-width="14" filter="url(#rim)"/>
      <path d="M 1024.00 512.00 L 1023.89 642.37 L 1023.56 683.99 L 1023.01 714.20 L 1022.24 738.75 L 1021.25 759.76 L 1020.04 778.30 L 1018.61 794.97 L 1016.95 810.17 L 1015.06 824.18 L 1012.95 837.17 L 1010.61 849.30 L 1008.04 860.66 L 1005.23 871.36 L 1002.19 881.45 L 998.90 890.99 L 995.37 900.02 L 991.59 908.59 L 987.56 916.73 L 983.27 924.46 L 978.72 931.81 L 973.90 938.79 L 968.79 945.43 L 963.41 951.73 L 957.72 957.72 L 951.73 963.41 L 945.43 968.79 L 938.79 973.90 L 931.81 978.72 L 924.46 983.27 L 916.73 987.56 L 908.59 991.59 L 900.02 995.37 L 890.99 998.90 L 881.45 1002.19 L 871.36 1005.23 L 860.66 1008.04 L 849.30 1010.61 L 837.17 1012.95 L 824.18 1015.06 L 810.17 1016.95 L 794.97 1018.61 L 778.30 1020.04 L 759.76 1021.25 L 738.75 1022.24 L 714.20 1023.01 L 683.99 1023.56 L 642.37 1023.89 L 512.00 1024.00 L 381.63 1023.89 L 340.01 1023.56 L 309.80 1023.01 L 285.25 1022.24 L 264.24 1021.25 L 245.70 1020.04 L 229.03 1018.61 L 213.83 1016.95 L 199.82 1015.06 L 186.83 1012.95 L 174.70 1010.61 L 163.34 1008.04 L 152.64 1005.23 L 142.55 1002.19 L 133.01 998.90 L 123.98 995.37 L 115.41 991.59 L 107.27 987.56 L 99.54 983.27 L 92.19 978.72 L 85.21 973.90 L 78.57 968.79 L 72.27 963.41 L 66.28 957.72 L 60.59 951.73 L 55.21 945.43 L 50.10 938.79 L 45.28 931.81 L 40.73 924.46 L 36.44 916.73 L 32.41 908.59 L 28.63 900.02 L 25.10 890.99 L 21.81 881.45 L 18.77 871.36 L 15.96 860.66 L 13.39 849.30 L 11.05 837.17 L 8.94 824.18 L 7.05 810.17 L 5.39 794.97 L 3.96 778.30 L 2.75 759.76 L 1.76 738.75 L 0.99 714.20 L 0.44 683.99 L 0.11 642.37 L 0.00 512.00 L 0.11 381.63 L 0.44 340.01 L 0.99 309.80 L 1.76 285.25 L 2.75 264.24 L 3.96 245.70 L 5.39 229.03 L 7.05 213.83 L 8.94 199.82 L 11.05 186.83 L 13.39 174.70 L 15.96 163.34 L 18.77 152.64 L 21.81 142.55 L 25.10 133.01 L 28.63 123.98 L 32.41 115.41 L 36.44 107.27 L 40.73 99.54 L 45.28 92.19 L 50.10 85.21 L 55.21 78.57 L 60.59 72.27 L 66.28 66.28 L 72.27 60.59 L 78.57 55.21 L 85.21 50.10 L 92.19 45.28 L 99.54 40.73 L 107.27 36.44 L 115.41 32.41 L 123.98 28.63 L 133.01 25.10 L 142.55 21.81 L 152.64 18.77 L 163.34 15.96 L 174.70 13.39 L 186.83 11.05 L 199.82 8.94 L 213.83 7.05 L 229.03 5.39 L 245.70 3.96 L 264.24 2.75 L 285.25 1.76 L 309.80 0.99 L 340.01 0.44 L 381.63 0.11 L 512.00 0.00 L 642.37 0.11 L 683.99 0.44 L 714.20 0.99 L 738.75 1.76 L 759.76 2.75 L 778.30 3.96 L 794.97 5.39 L 810.17 7.05 L 824.18 8.94 L 837.17 11.05 L 849.30 13.39 L 860.66 15.96 L 871.36 18.77 L 881.45 21.81 L 890.99 25.10 L 900.02 28.63 L 908.59 32.41 L 916.73 36.44 L 924.46 40.73 L 931.81 45.28 L 938.79 50.10 L 945.43 55.21 L 951.73 60.59 L 957.72 66.28 L 963.41 72.27 L 968.79 78.57 L 973.90 85.21 L 978.72 92.19 L 983.27 99.54 L 987.56 107.27 L 991.59 115.41 L 995.37 123.98 L 998.90 133.01 L 1002.19 142.55 L 1005.23 152.64 L 1008.04 163.34 L 1010.61 174.70 L 1012.95 186.83 L 1015.06 199.82 L 1016.95 213.83 L 1018.61 229.03 L 1020.04 245.70 L 1021.25 264.24 L 1022.24 285.25 L 1023.01 309.80 L 1023.56 340.01 L 1023.89 381.63 Z" fill="none" stroke="#B9AC98" stroke-opacity="0.22" stroke-width="3"/>
    </g>

    <g id="mid">
      <!-- warm spill from the dominant seam onto the porcelain floor -->
      <ellipse cx="512" cy="846" rx="256" ry="30" fill="#FF7A45" opacity="0.16" filter="url(#softer)"/>
      <!-- contact shadow -->
      <ellipse cx="512" cy="838" rx="318" ry="30" fill="#2E2419" opacity="0.24" filter="url(#soft)"/>
      <ellipse cx="512" cy="830" rx="252" ry="15" fill="#241C13" opacity="0.22" filter="url(#tight)"/>
      <!-- three loose sheets still lifting off, gaps converging into the core -->
            <g opacity="0.30"><rect x="286" y="218" width="452" height="9" rx="4.5" fill="#CDC5B8"/><rect x="292" y="218" width="440" height="2.5" rx="1.2" fill="#FFFFFF" opacity="0.7"/></g>
      <g opacity="0.46"><rect x="259" y="262" width="506" height="12" rx="6.0" fill="#CDC5B8"/><rect x="265" y="262" width="494" height="2.5" rx="1.2" fill="#FFFFFF" opacity="0.7"/></g>
      <g opacity="0.64"><rect x="234" y="302" width="556" height="16" rx="8.0" fill="#CDC5B8"/><rect x="240" y="302" width="544" height="2.5" rx="1.2" fill="#FFFFFF" opacity="0.7"/></g>
    </g>

    <g id="fg">
      <!-- carrying silhouette: one filled shape, identity survives tinting -->
      <path d="M 206 386 L 206 776 Q 512 864 818 776 L 818 386 Q 512 298 206 386 Z" fill="url(#wall)"/>
      <ellipse cx="512" cy="386" rx="306" ry="44" fill="url(#cap)"/>
      <ellipse cx="512" cy="386" rx="280" ry="35" fill="#3C444B" opacity="0.55"/>
      <g clip-path="url(#bodyClip)">
        <path d="M 206 386 L 206 776 Q 512 864 818 776 L 818 386 Q 512 298 206 386 Z" fill="url(#round)"/>
        <!-- the discarded bulk: hundreds of hairline strata, tightening with depth -->
        <g fill="none" stroke="#A3ACB3" stroke-linecap="round">
                    <path d="M 206 444 Q 512 532 818 444" stroke-width="2.3" stroke-opacity="0.137"/>
          <path d="M 206 477 Q 512 565 818 477" stroke-width="2.7" stroke-opacity="0.137"/>
          <path d="M 206 501 Q 512 589 818 501" stroke-width="2.3" stroke-opacity="0.150"/>
          <path d="M 206 538 Q 512 626 818 538" stroke-width="2.4" stroke-opacity="0.106"/>
          <path d="M 206 559 Q 512 647 818 559" stroke-width="2.5" stroke-opacity="0.212"/>
          <path d="M 206 628 Q 512 716 818 628" stroke-width="2.6" stroke-opacity="0.182"/>
          <path d="M 206 646 Q 512 734 818 646" stroke-width="3.2" stroke-opacity="0.147"/>
          <path d="M 206 660 Q 512 748 818 660" stroke-width="2.8" stroke-opacity="0.132"/>
          <path d="M 206 689 Q 512 777 818 689" stroke-width="3.3" stroke-opacity="0.166"/>
          <path d="M 206 700 Q 512 788 818 700" stroke-width="2.8" stroke-opacity="0.124"/>
          <path d="M 206 747 Q 512 835 818 747" stroke-width="3.0" stroke-opacity="0.120"/>
          <path d="M 206 765 Q 512 853 818 765" stroke-width="2.3" stroke-opacity="0.262"/>
        </g>
        <!-- the load-bearing five -->
                <path d="M 206 462 Q 512 550 818 462" stroke="url(#seam0)" stroke-width="7" fill="none" stroke-linecap="round"/>
        <path d="M 206 522 Q 512 610 818 522" stroke="url(#seam1)" stroke-width="11" fill="none" stroke-linecap="round"/>
        <path d="M 206 600 Q 512 688 818 600" stroke="url(#seam2)" stroke-width="34" fill="none" stroke-linecap="round"/>
        <path d="M 206 672 Q 512 760 818 672" stroke="url(#seam3)" stroke-width="9" fill="none" stroke-linecap="round"/>
        <path d="M 206 722 Q 512 810 818 722" stroke="url(#seam4)" stroke-width="14" fill="none" stroke-linecap="round"/>
      </g>
    </g>

    <g id="highlight">
      <g clip-path="url(#bodyClip)">
        <!-- emissive interior: the dominant seam blooms through the gel wall -->
        <path d="M 206 600 Q 512 688 818 600" stroke="#FF8046" stroke-width="52" fill="none" opacity="0.55" filter="url(#tight)"/>
        <path d="M 206 600 Q 512 688 818 600" stroke="#FF7038" stroke-width="120" fill="none" opacity="0.28" filter="url(#soft)"/>
        <path d="M 206 600 Q 512 688 818 600" stroke="#FFCEA8" stroke-width="9" fill="none" opacity="0.75"/>
        <!-- soft sheen, upper left, one light source -->
        <ellipse cx="330" cy="480" rx="150" ry="112" fill="#FFFFFF" opacity="0.09" filter="url(#soft)"/>
      </g>
      <!-- front lip of the cap catches the top light -->
      <path d="M 206 386 Q 512 474 818 386" stroke="#B4BDC4" stroke-width="4" fill="none" opacity="0.5" filter="url(#rim)"/>
      <path d="M 206 386 Q 512 298 818 386" stroke="#FFFFFF" stroke-width="5"
            fill="none" opacity="0.34" filter="url(#rim)"/>
      <!-- vertical silhouette rim -->
      <path d="M 207 404 L 207 746" stroke="#8E979E" stroke-width="3"
            opacity="0.35" filter="url(#rim)"/>
      <path d="M 817 404 L 817 746" stroke="#8E979E" stroke-width="3"
            opacity="0.30" filter="url(#rim)"/>
    </g>

  </g>
</svg>
