<svg xmlns="http://www.w3.org/2000/svg" viewBox="0 0 185 185">
<!-- SVG created with Arrow, by QuiverAI (https://quiver.ai) -->
  <style type="text/css">.cls-0 {fill:url(#SVGID_1_);}
.cls-1 {opacity:0.4;fill:url(#SVGID_2_);enable-background:new    ;}
.cls-2 {fill:#2C3E50;}
.cls-3 {fill:none;stroke:#17293D;stroke-width:0.5;stroke-miterlimit:10;}
.cls-4 {fill:#6F90B2;}
.cls-5 {fill:url(#ä¸ªçº§ç½å®¹ã»ç¯èã_2_);}
.cls-6 {fill:none;stroke:#385470;stroke-width:0.5;stroke-linecap:square;stroke-miterlimit:10;}
.cls-7 {fill:none;stroke:#A2BAD1;stroke-width:0.5;stroke-linecap:square;stroke-miterlimit:10;}
.cls-8 {fill:#475260;}
.cls-9 {fill:none;stroke:#5C6C7F;stroke-width:0.75;stroke-linecap:square;stroke-miterlimit:10;}
.cls-10 {fill:#DCE6EF;stroke:#70859E;stroke-width:0.5;stroke-linecap:square;stroke-miterlimit:10;}
.cls-11 {fill:none;stroke:#70859E;stroke-width:0.5;stroke-linecap:square;stroke-miterlimit:10;}
.cls-12 {fill:#AABDCF;stroke:#70859E;stroke-width:0.5;stroke-linecap:square;stroke-miterlimit:10;}
.cls-13 {fill:#EBF4FA;stroke:#70859E;stroke-width:0.5;stroke-linecap:square;stroke-miterlimit:10;}
.cls-14 {fill:url(#SVGID_3_);}
.cls-15 {fill:#FFAF47;stroke:#FD7A10;stroke-width:0.5;stroke-miterlimit:10;}
.cls-16 {fill:#FCAF2A;stroke:#FE8C18;stroke-width:0.5;stroke-miterlimit:10;}
.cls-17 {fill:#FF8C00;stroke:#FE8300;stroke-width:0.5;stroke-miterlimit:10;}
.cls-18 {fill:#FE7000;stroke:#EE5B00;stroke-width:0.5;stroke-miterlimit:10;}
.cls-19 {fill:#ED5707;stroke:#DB4700;stroke-width:0.5;stroke-miterlimit:10;}
.cls-20 {fill:#FFCF9A;stroke:#FB8523;stroke-width:0.5;stroke-miterlimit:10;}</style>
  <linearGradient id="SVGID_1_" x1="8.672" x2="174.8" y1="-41.73" y2="219.5" gradientUnits="userSpaceOnUse">
    <stop stop-color="#fff" offset=".322"/>
    <stop stop-color="#E1EBF3" offset="1"/>
  </linearGradient>
  <path class="cls-0" d="m0 0h173.8c5.6 0 11.2 5.6 11.2 12.2v162.6c0 6.6-5.6 12.2-11.2 12.2h-163.8c-5.6 0-10-5.6-10-12.2v-174.8z"/>
  <radialGradient id="SVGID_2_" cx="94" cy="629.9" r="56" gradientTransform="matrix(1 0 0 .1 0 -38.2)" gradientUnits="userSpaceOnUse">
    <stop stop-color="#70859E" offset="0"/>
    <stop stop-color="#70859E" stop-opacity="0" offset=".8996"/>
  </radialGradient>
  <ellipse class="cls-1" cx="94" cy="129" rx="56" ry="3.5"/>
  <path class="cls-2" d="m150.4 100.8c-0.8 4.2-1.1 18.2-1.1 18.2s0.2 2.5-2.5 2.5h-8.8l2-4.5 1-14.9 9.4-1.3z"/>
  <path class="cls-3" d="m150.4 100.8c-0.8 4.2-1.1 18.2-1.1 18.2s0.2 2.5-2.5 2.5h-8.8l2-4.5 1-14.9 9.4-1.3z"/>
  <path class="cls-5" d="m30.3 55.9c1.7 18.1 4.7 65.7 39.6 65.6 15.3 0 53.1-4.5 85.3-4.4v-39.1c-23.3 0-66.6-5.1-119.7-16.3l-0.3-4.6s-2.4-1.5-4.9-1.2z"/>
  <path class="cls-3" d="m30.2 55.9c1.8 18.1 4.8 65.7 39.7 65.6 15.3 0 51.3-4.2 85.4-4"/>
  <path class="cls-6" d="m34 61.3c1.1 6.2 2.3 19.4 5.7 28.3 4.5 12 13.6 28.5 33.7 28.4l49.6-1"/>
  <path class="cls-7" d="m30.8 55.9c1.7 18.1 4.6 64.1 39.2 65.4"/>
  <path class="cls-3" d="m140.4 117.1c3.5-1.4 5.4-15.7 14.8-18.3"/>
  <path class="cls-2" d="m47.6 68.3 1.1 12.5 3.9 13.4 15.2 3.7-1.8-14.6-2.2-11.8-16.2-3.2z"/>
  <path class="cls-8" d="m54 91.7 2.1 3.8 11.6 2.4-0.6-3.1z"/>
  <path class="cls-9" d="m54.8 94.6c-0.5-0.6-2.8-7.6-3.7-15.6l-0.5-10"/>
  <linearGradient id="SVGID_3_" x1="34.8" x2="84.7" y1="75.86" y2="75.86" gradientUnits="userSpaceOnUse">
    <stop stop-color="#485663" offset=".09701"/>
    <stop stop-color="#5F7791" offset=".4825"/>
    <stop stop-color="#AFC1DA" offset=".8405"/>
  </linearGradient>
  <path class="cls-14" d="m34.8 69.1 0.2 2.3 49.7 8.6-0.1-4.9-49.8-6z"/>
  <path class="cls-6" d="m34.8 69.1 0.2 2.3 49.7 8.6-0.1-4.5"/>
  <path class="cls-4" d="m35.8 74.9 0.4 2.1s38.8 7.5 48.4 7.6v-3.3l-48.8-6.4zm0.8 5.5 0.6 2.3 47.4 8.3 0.1-3.9-48.1-6.7z"/>
  <polygon class="cls-4" points="38.1 85.7 38.6 87.9 67.9 95 67.9 97.9 67.9 97.9 67.9 97.9 67.7 97.9"/>
  <path class="cls-6" d="m35.8 74.9 48.8 9.7v-3.3"/>
  <path class="cls-7" d="m36.1 75.7 48.5 8.9"/>
  <path class="cls-6" d="m36.6 80.4 47.9 10"/>
  <path class="cls-7" d="m37 81.3 47.5 9.5"/>
  <path class="cls-6" d="m38.1 85.7 30.3 7.3"/>
  <linearGradient id="SVGID_5_" x1="82" x2="113.3" y1="74.55" y2="74.55" gradientUnits="userSpaceOnUse">
    <stop stop-color="#FFD9A1" offset="0"/>
    <stop stop-color="#FF7A15" offset=".7423"/>
  </linearGradient>
  <path d="m81.5 70.3v4.7l31.8 4.8-0.1-4.8z" fill="url(#SVGID_5_)" stroke="#EC5600" stroke-width=".5"/>
  <path class="cls-15" d="m90.2 71.8v4.4l5.3 0.9v-4.7z"/>
  <path class="cls-16" d="m95.5 72.6v4.6l4.5 0.7v-4.7z"/>
  <path class="cls-17" d="m99.9 73.2v4.8l4.9 0.7v-4.8z"/>
  <path class="cls-18" d="m104.8 74-0.1 4.7 4.7 0.6 0.1-4.8z"/>
  <path class="cls-19" d="m109.5 74.5-0.1 4.8 3.8 0.5 0.1-4.8z"/>
  <path class="cls-6" d="m38.9 88.7 39.4 6.2c3.3 0.6 5.2 0.5 6.1-2.2"/>
  <path class="cls-7" d="m37.5 69.8 47 8.8"/>
  <path class="cls-3" d="m50.9 108.4c7.6 6.1 13.8 9.4 26.6 9.6"/>
  <path class="cls-6" d="m39.9 91.3 0.6 2c15.1 3.1 41.6 11.2 82.6 23.7m-79.1-18.5c15.8 4 45.6 11.7 99 15m-96.1-10c22 5.9 41.9 11.3 76.2 13.4m-72.2-8.5c14.4 3.8 29.2 8.6 39.1 8.9m-48.1-23.7c14.8 3.5 46.8 11.2 105 14.9m-62.5-15.9c12.4 1.9 29.1 5.3 63.3 6.6h7.6"/>
  <path class="cls-6" d="m40.1 87.3 38.4 7.6"/>
  <path class="cls-7" d="m114.1 75.7c9 0.9 21.9 2.4 41.1 2.8"/>
  <path class="cls-6" d="m113.4 80c12.2 1.2 23.6 2.5 41.9 2.9m-70.3-1.1c12.6 1.4 37.1 5.8 70.3 6.2m-70.6-0.5c17.2 2.3 39.2 5.6 70.6 6"/>
  <radialGradient id="SVGID_6_" cx="94.1" cy="74.7" r="22" fy="71.73" gradientTransform="matrix(1 0 0 .5 0 37.35)" gradientUnits="userSpaceOnUse">
    <stop stop-color="#FFA96A" offset="0"/>
    <stop stop-color="#FFBF7C" stop-opacity="0" offset="1"/>
  </radialGradient>
  <ellipse cx="94.1" cy="74.7" rx="22" ry="11" clip-rule="evenodd" fill="url(#SVGID_6_)" fill-rule="evenodd"/>
  <path class="cls-20" d="m81.6 70.3v4.8l8.6 1.2v-4.7z"/>
  <path class="cls-3" d="m34 61.3 47.5 9.9"/>
  <path class="cls-9" d="m64.2 71.6 0.1 3.3 0.6 8.6 1.2 8.9 1.8 5.5"/>
  <path class="cls-4" d="m64.2 75.8 2.6 0.5 0.3 4.7-2.1-0.2z"/>
  <path class="cls-6" d="m66.6 71.9-0.1 3.6 1.4 17"/>
  <path class="cls-7" d="m85 82.1c11.9 1.5 36.2 5.2 70.3 6.5"/>
  <path class="cls-7" d="m85 87.9c12.5 1.7 35.1 4.8 70.3 5.6"/>
  <path class="cls-3" d="m34 65.4 50.7 9.5"/>
  <path class="cls-6" d="m40.1 86.5-2-0.8m2.6 5.7-0.8-0.1"/>
  <path class="cls-11" d="m54.6 92.5 1.4 2.6"/>
  <path class="cls-6" d="m140.7 117.1h8.6m-8.6 4.4h6.1"/>
  <path class="cls-10" d="m77.6 117h63l-0.1 4.5h-62.9z"/>
  <path class="cls-13" d="m72.1 121.7h10.9v6l-10.9 0.1z"/>
  <path class="cls-13" d="m83.1 121.7h10.2v5.9l-10.2 0.1z"/>
  <path class="cls-13" d="m97.2 121.7 10.9-0.1v6l-10.9 0.1z"/>
  <path class="cls-13" d="m108.2 121.7 10.4-0.1v6l-10.4 0.1z"/>
  <path class="cls-11" d="m80.6 117.1v4.4"/>
  <path class="cls-12" d="m122.4 121.6 3.7 6.1h6.5l-3.3-6.1z"/>
  <path class="cls-11" d="m124.9 121.9 3.1 5.6"/>
  <path class="cls-13" d="m128.8 114.7 8.3 13h6.5l-7.7-12.9-7.1-0.1z"/>
  <path class="cls-11" d="m130.9 115 8 12.5"/>
</svg>