<svg xmlns="http://www.w3.org/2000/svg" viewBox="0 0 1024 1024" width="1024" height="1024">
  <title>visualization — 64px and below</title>
  <desc>Three graphite bars of unequal height standing on one glowing vermilion baseline,
        on a porcelain cushion tile. The baseline is the focal element.</desc>
  <defs>
    <clipPath id="tile"><path d="M1024.00,512.00C1024.00,569.33 1023.85,646.20 1023.56,683.99C1023.27,721.78 1022.83,723.03 1022.24,738.75C1021.66,754.47 1020.92,766.39 1020.04,778.30C1019.16,790.20 1018.13,800.36 1016.95,810.17C1015.77,819.99 1014.44,828.75 1012.95,837.17C1011.47,845.58 1009.83,853.28 1008.04,860.66C1006.25,868.04 1004.30,874.89 1002.19,881.45C1000.08,888.01 997.81,894.14 995.37,900.02C992.94,905.90 990.34,911.43 987.56,916.73C984.79,922.03 981.85,927.02 978.72,931.81C975.59,936.59 972.29,941.11 968.79,945.43C965.29,949.75 961.62,953.83 957.72,957.72C953.83,961.62 949.75,965.29 945.43,968.79C941.11,972.29 936.59,975.59 931.81,978.72C927.02,981.85 922.03,984.79 916.73,987.56C911.43,990.34 905.90,992.94 900.02,995.37C894.14,997.81 888.01,1000.08 881.45,1002.19C874.89,1004.30 868.04,1006.25 860.66,1008.04C853.28,1009.83 845.58,1011.47 837.17,1012.95C828.75,1014.44 819.99,1015.77 810.17,1016.95C800.36,1018.13 790.20,1019.16 778.30,1020.04C766.39,1020.92 754.47,1021.66 738.75,1022.24C723.03,1022.83 721.78,1023.27 683.99,1023.56C646.20,1023.85 569.33,1024.00 512.00,1024.00C454.67,1024.00 377.80,1023.85 340.01,1023.56C302.22,1023.27 300.97,1022.83 285.25,1022.24C269.53,1021.66 257.61,1020.92 245.70,1020.04C233.80,1019.16 223.64,1018.13 213.83,1016.95C204.01,1015.77 195.25,1014.44 186.83,1012.95C178.42,1011.47 170.72,1009.83 163.34,1008.04C155.96,1006.25 149.11,1004.30 142.55,1002.19C135.99,1000.08 129.86,997.81 123.98,995.37C118.10,992.94 112.57,990.34 107.27,987.56C101.97,984.79 96.98,981.85 92.19,978.72C87.41,975.59 82.89,972.29 78.57,968.79C74.25,965.29 70.17,961.62 66.28,957.72C62.38,953.83 58.71,949.75 55.21,945.43C51.71,941.11 48.41,936.59 45.28,931.81C42.15,927.02 39.21,922.03 36.44,916.73C33.66,911.43 31.06,905.90 28.63,900.02C26.19,894.14 23.92,888.01 21.81,881.45C19.70,874.89 17.75,868.04 15.96,860.66C14.17,853.28 12.53,845.58 11.05,837.17C9.56,828.75 8.23,819.99 7.05,810.17C5.87,800.36 4.84,790.20 3.96,778.30C3.08,766.39 2.34,754.47 1.76,738.75C1.17,723.03 0.73,721.78 0.44,683.99C0.15,646.20 0.00,569.33 0.00,512.00C0.00,454.67 0.15,377.80 0.44,340.01C0.73,302.22 1.17,300.97 1.76,285.25C2.34,269.53 3.08,257.61 3.96,245.70C4.84,233.80 5.87,223.64 7.05,213.83C8.23,204.01 9.56,195.25 11.05,186.83C12.53,178.42 14.17,170.72 15.96,163.34C17.75,155.96 19.70,149.11 21.81,142.55C23.92,135.99 26.19,129.86 28.63,123.98C31.06,118.10 33.66,112.57 36.44,107.27C39.21,101.97 42.15,96.98 45.28,92.19C48.41,87.41 51.71,82.89 55.21,78.57C58.71,74.25 62.38,70.17 66.28,66.28C70.17,62.38 74.25,58.71 78.57,55.21C82.89,51.71 87.41,48.41 92.19,45.28C96.98,42.15 101.97,39.21 107.27,36.44C112.57,33.66 118.10,31.06 123.98,28.63C129.86,26.19 135.99,23.92 142.55,21.81C149.11,19.70 155.96,17.75 163.34,15.96C170.72,14.17 178.42,12.53 186.83,11.05C195.25,9.56 204.01,8.23 213.83,7.05C223.64,5.87 233.80,4.84 245.70,3.96C257.61,3.08 269.53,2.34 285.25,1.76C300.97,1.17 302.22,0.73 340.01,0.44C377.80,0.15 454.67,0.00 512.00,0.00C569.33,0.00 646.20,0.15 683.99,0.44C721.78,0.73 723.03,1.17 738.75,1.76C754.47,2.34 766.39,3.08 778.30,3.96C790.20,4.84 800.36,5.87 810.17,7.05C819.99,8.23 828.75,9.56 837.17,11.05C845.58,12.53 853.28,14.17 860.66,15.96C868.04,17.75 874.89,19.70 881.45,21.81C888.01,23.92 894.14,26.19 900.02,28.63C905.90,31.06 911.43,33.66 916.73,36.44C922.03,39.21 927.02,42.15 931.81,45.28C936.59,48.41 941.11,51.71 945.43,55.21C949.75,58.71 953.83,62.38 957.72,66.28C961.62,70.17 965.29,74.25 968.79,78.57C972.29,82.89 975.59,87.41 978.72,92.19C981.85,96.98 984.79,101.97 987.56,107.27C990.34,112.57 992.94,118.10 995.37,123.98C997.81,129.86 1000.08,135.99 1002.19,142.55C1004.30,149.11 1006.25,155.96 1008.04,163.34C1009.83,170.72 1011.47,178.42 1012.95,186.83C1014.44,195.25 1015.77,204.01 1016.95,213.83C1018.13,223.64 1019.16,233.80 1020.04,245.70C1020.92,257.61 1021.66,269.53 1022.24,285.25C1022.83,300.97 1023.27,302.22 1023.56,340.01C1023.85,377.80 1024.00,454.67 1024.00,512.00Z"/></clipPath>

    <linearGradient id="ground" x1="0" y1="0" x2="0" y2="1">
      <stop offset="0" stop-color="#FFFFFF"/>
      <stop offset=".54" stop-color="#F7F6F3"/>
      <stop offset="1" stop-color="#E6E4E0"/>
    </linearGradient>

    <radialGradient id="vignette" cx=".5" cy=".44" r=".74">
      <stop offset=".60" stop-color="#1B1F24" stop-opacity="0"/>
      <stop offset="1" stop-color="#1B1F24" stop-opacity=".075"/>
    </radialGradient>

    <linearGradient id="innerRim" x1="0" y1="0" x2="0" y2="1">
      <stop offset="0" stop-color="#FFFFFF" stop-opacity=".92"/>
      <stop offset=".5" stop-color="#FFFFFF" stop-opacity="0"/>
    </linearGradient>

    <!-- the scene's one light, shared by every bar -->
    <linearGradient id="graphite" gradientUnits="userSpaceOnUse"
                    x1="0" y1="268.0" x2="0" y2="698.0">
      <stop offset="0" stop-color="#59636E"/>
      <stop offset=".30" stop-color="#39424C"/>
      <stop offset=".70" stop-color="#262E37"/>
      <stop offset="1" stop-color="#1A2027"/>
    </linearGradient>

    <!-- The edge catch (r03), and the one relationship on this icon that was authored
         backwards before it was measured. Across the reference's tall bar the luminance
         runs 128 / 108 / 91 / 94 / 92 / 100 / 135 from edge to edge: BRIGHT at both
         edges, darkest through the middle. That is a translucent body catching light on
         its turned edges. The first draft was a roundness fall — dark edges, bright core
         — which is an opaque cylinder, and it read as one.

         Floored below 96px (`small=True`), and that is a resolution fact rather than a
         taste call. At 32px a 132px bar is 4.1 pixels wide, and two lit edges plus a
         darker core is three values in four pixels when antialiasing has already spent
         two of them on the silhouette. Measured: the catch lifts the render's 10th
         percentile from 0.392 to 0.476 and drops self-contrast at 32px from 0.600 to
         0.535, past the gate's 6% floor — identically at every amplitude from 0.20 to
         0.40 and at every catch width from 2.2% to 5.5%, because the catch is not
         brightening the dark pixels, it is deleting them. Not an amplitude to tune. -->
    <linearGradient id="round" x1="0" y1="0" x2="1" y2="0">
      <stop offset="0" stop-color="#0E1319" stop-opacity=".46"/>
      <stop offset=".18" stop-color="#0E1319" stop-opacity=".05"/>
      <stop offset=".62" stop-color="#0E1319" stop-opacity="0"/>
      <stop offset="1" stop-color="#0E1319" stop-opacity=".30"/>
    </linearGradient>

    <linearGradient id="cap" x1="0" y1="0" x2="0" y2="1">
      <stop offset="0" stop-color="#FFFFFF" stop-opacity=".34"/>
      <stop offset=".22" stop-color="#FFFFFF" stop-opacity=".07"/>
      <stop offset="1" stop-color="#FFFFFF" stop-opacity="0"/>
    </linearGradient>

    <!-- THE SIGNATURE, in material: the rule's light climbing every bar. -->
    <linearGradient id="bounce" gradientUnits="userSpaceOnUse"
                    x1="0" y1="578.0" x2="0" y2="698.0">
      <stop offset="0" stop-color="#F26A28" stop-opacity="0"/>
      <stop offset=".55" stop-color="#F26A28" stop-opacity=".06"/>
      <stop offset="1" stop-color="#FF9A4E" stop-opacity=".26"/>
    </linearGradient>

    <!-- the datum, in cross-section: lip at the lit top edge, hot core just under it,
         body, then a deep shaded underside where it meets the porcelain -->
    <linearGradient id="rule" gradientUnits="userSpaceOnUse"
                    x1="0" y1="698.0" x2="0" y2="750.0">
      <stop offset="0" stop-color="#FFE3C4"/>
      <stop offset=".16" stop-color="#FF9A4E"/>
      <stop offset=".42" stop-color="#E85F22"/>
      <stop offset=".78" stop-color="#C43F16"/>
      <stop offset="1" stop-color="#8C2E0F"/>
    </linearGradient>

    <!-- the ends fall off, so the rule reads as one lit length rather than a painted bar -->
    <linearGradient id="ruleEnds" x1="0" y1="0" x2="1" y2="0">
      <stop offset="0" stop-color="#8C2E0F" stop-opacity=".55"/>
      <stop offset=".07" stop-color="#8C2E0F" stop-opacity="0"/>
      <stop offset=".93" stop-color="#8C2E0F" stop-opacity="0"/>
      <stop offset="1" stop-color="#8C2E0F" stop-opacity=".55"/>
    </linearGradient>

    <!-- the halo well (r01). Fitted to the reference rather than eyeballed: chroma on
         the porcelain beside the rule falls 197 / 153 / 77 / 34 / 13 / 0 at dy =
         0 / 20 / 40 / 60 / 80 / 110, so the stops below are that curve and BLOOM_RY is
         that reach. The first draft had a faint 182px veil peaking at chroma 19 against
         the reference's 198 — a coloured bar rather than an emitter. -->
    <radialGradient id="bloom" cx=".5" cy=".5" r=".5">
      <stop offset="0" stop-color="#FF9A4E" stop-opacity=".82"/>
      <stop offset=".18" stop-color="#F26A28" stop-opacity=".60"/>
      <stop offset=".37" stop-color="#F26A28" stop-opacity=".28"/>
      <stop offset=".62" stop-color="#F26A28" stop-opacity=".09"/>
      <stop offset="1" stop-color="#F26A28" stop-opacity="0"/>
    </radialGradient>

    <radialGradient id="contact" cx=".5" cy=".5" r=".5">
      <stop offset="0" stop-color="#241F1C" stop-opacity=".30"/>
      <stop offset=".58" stop-color="#241F1C" stop-opacity=".09"/>
      <stop offset="1" stop-color="#241F1C" stop-opacity="0"/>
    </radialGradient>

    <linearGradient id="ao" x1="0" y1="0" x2="0" y2="1">
      <stop offset="0" stop-color="#3B1206" stop-opacity=".30"/>
      <stop offset="1" stop-color="#3B1206" stop-opacity="0"/>
    </linearGradient>
  </defs>

  <g clip-path="url(#tile)">

    <g id="bg">
      <!-- the cushion. A dead-flat ground is instantly previous-era (grammar #1). -->
      <rect width="1024" height="1024" fill="url(#ground)"/>
      <rect width="1024" height="1024" fill="url(#vignette)"/>
      <path d="M1024.00,512.00C1024.00,569.33 1023.85,646.20 1023.56,683.99C1023.27,721.78 1022.83,723.03 1022.24,738.75C1021.66,754.47 1020.92,766.39 1020.04,778.30C1019.16,790.20 1018.13,800.36 1016.95,810.17C1015.77,819.99 1014.44,828.75 1012.95,837.17C1011.47,845.58 1009.83,853.28 1008.04,860.66C1006.25,868.04 1004.30,874.89 1002.19,881.45C1000.08,888.01 997.81,894.14 995.37,900.02C992.94,905.90 990.34,911.43 987.56,916.73C984.79,922.03 981.85,927.02 978.72,931.81C975.59,936.59 972.29,941.11 968.79,945.43C965.29,949.75 961.62,953.83 957.72,957.72C953.83,961.62 949.75,965.29 945.43,968.79C941.11,972.29 936.59,975.59 931.81,978.72C927.02,981.85 922.03,984.79 916.73,987.56C911.43,990.34 905.90,992.94 900.02,995.37C894.14,997.81 888.01,1000.08 881.45,1002.19C874.89,1004.30 868.04,1006.25 860.66,1008.04C853.28,1009.83 845.58,1011.47 837.17,1012.95C828.75,1014.44 819.99,1015.77 810.17,1016.95C800.36,1018.13 790.20,1019.16 778.30,1020.04C766.39,1020.92 754.47,1021.66 738.75,1022.24C723.03,1022.83 721.78,1023.27 683.99,1023.56C646.20,1023.85 569.33,1024.00 512.00,1024.00C454.67,1024.00 377.80,1023.85 340.01,1023.56C302.22,1023.27 300.97,1022.83 285.25,1022.24C269.53,1021.66 257.61,1020.92 245.70,1020.04C233.80,1019.16 223.64,1018.13 213.83,1016.95C204.01,1015.77 195.25,1014.44 186.83,1012.95C178.42,1011.47 170.72,1009.83 163.34,1008.04C155.96,1006.25 149.11,1004.30 142.55,1002.19C135.99,1000.08 129.86,997.81 123.98,995.37C118.10,992.94 112.57,990.34 107.27,987.56C101.97,984.79 96.98,981.85 92.19,978.72C87.41,975.59 82.89,972.29 78.57,968.79C74.25,965.29 70.17,961.62 66.28,957.72C62.38,953.83 58.71,949.75 55.21,945.43C51.71,941.11 48.41,936.59 45.28,931.81C42.15,927.02 39.21,922.03 36.44,916.73C33.66,911.43 31.06,905.90 28.63,900.02C26.19,894.14 23.92,888.01 21.81,881.45C19.70,874.89 17.75,868.04 15.96,860.66C14.17,853.28 12.53,845.58 11.05,837.17C9.56,828.75 8.23,819.99 7.05,810.17C5.87,800.36 4.84,790.20 3.96,778.30C3.08,766.39 2.34,754.47 1.76,738.75C1.17,723.03 0.73,721.78 0.44,683.99C0.15,646.20 0.00,569.33 0.00,512.00C0.00,454.67 0.15,377.80 0.44,340.01C0.73,302.22 1.17,300.97 1.76,285.25C2.34,269.53 3.08,257.61 3.96,245.70C4.84,233.80 5.87,223.64 7.05,213.83C8.23,204.01 9.56,195.25 11.05,186.83C12.53,178.42 14.17,170.72 15.96,163.34C17.75,155.96 19.70,149.11 21.81,142.55C23.92,135.99 26.19,129.86 28.63,123.98C31.06,118.10 33.66,112.57 36.44,107.27C39.21,101.97 42.15,96.98 45.28,92.19C48.41,87.41 51.71,82.89 55.21,78.57C58.71,74.25 62.38,70.17 66.28,66.28C70.17,62.38 74.25,58.71 78.57,55.21C82.89,51.71 87.41,48.41 92.19,45.28C96.98,42.15 101.97,39.21 107.27,36.44C112.57,33.66 118.10,31.06 123.98,28.63C129.86,26.19 135.99,23.92 142.55,21.81C149.11,19.70 155.96,17.75 163.34,15.96C170.72,14.17 178.42,12.53 186.83,11.05C195.25,9.56 204.01,8.23 213.83,7.05C223.64,5.87 233.80,4.84 245.70,3.96C257.61,3.08 269.53,2.34 285.25,1.76C300.97,1.17 302.22,0.73 340.01,0.44C377.80,0.15 454.67,0.00 512.00,0.00C569.33,0.00 646.20,0.15 683.99,0.44C721.78,0.73 723.03,1.17 738.75,1.76C754.47,2.34 766.39,3.08 778.30,3.96C790.20,4.84 800.36,5.87 810.17,7.05C819.99,8.23 828.75,9.56 837.17,11.05C845.58,12.53 853.28,14.17 860.66,15.96C868.04,17.75 874.89,19.70 881.45,21.81C888.01,23.92 894.14,26.19 900.02,28.63C905.90,31.06 911.43,33.66 916.73,36.44C922.03,39.21 927.02,42.15 931.81,45.28C936.59,48.41 941.11,51.71 945.43,55.21C949.75,58.71 953.83,62.38 957.72,66.28C961.62,70.17 965.29,74.25 968.79,78.57C972.29,82.89 975.59,87.41 978.72,92.19C981.85,96.98 984.79,101.97 987.56,107.27C990.34,112.57 992.94,118.10 995.37,123.98C997.81,129.86 1000.08,135.99 1002.19,142.55C1004.30,149.11 1006.25,155.96 1008.04,163.34C1009.83,170.72 1011.47,178.42 1012.95,186.83C1014.44,195.25 1015.77,204.01 1016.95,213.83C1018.13,223.64 1019.16,233.80 1020.04,245.70C1020.92,257.61 1021.66,269.53 1022.24,285.25C1022.83,300.97 1023.27,302.22 1023.56,340.01C1023.85,377.80 1024.00,454.67 1024.00,512.00Z" fill="none" stroke="url(#innerRim)" stroke-width="3" stroke-opacity=".55"/>
    </g>

    <g id="mid">
      <!-- the datum's light reaching the porcelain, and the shadow it still casts. Drawn
           BELOW the bars so they occlude it: light spills around them, not over them. -->
      <ellipse cx="512.0" cy="724.0"
               rx="406.0" ry="118.0" fill="url(#bloom)"/>
      <ellipse cx="512.0" cy="770.0" rx="410.4" ry="46"
               fill="url(#contact)"/>
    </g>

    <g id="fg">
      <!-- THE DATUM. Drawn before the bars, unbroken end to end: it is what they stand on,
           so nothing may interrupt it. -->
      <rect x="132.0" y="698.0" width="760.0" height="52.0"
            rx="12.0" fill="url(#rule)"/>
      <rect x="132.0" y="698.0" width="760.0" height="52.0"
            rx="12.0" fill="url(#ruleEnds)"/>

      <!-- the bars: context, not subject. They sink 4px into the rule so no
           hairline seam survives rasterisation. -->
      <path d="M236.0,702.0 L236.0,428.0 A30.0,30.0 0 0 1 266.0,398.0 L338.0,398.0 A30.0,30.0 0 0 1 368.0,428.0 L368.0,702.0 Z" fill="url(#graphite)"/>
      <path d="M236.0,702.0 L236.0,428.0 A30.0,30.0 0 0 1 266.0,398.0 L338.0,398.0 A30.0,30.0 0 0 1 368.0,428.0 L368.0,702.0 Z" fill="url(#round)"/>
      <path d="M236.0,702.0 L236.0,428.0 A30.0,30.0 0 0 1 266.0,398.0 L338.0,398.0 A30.0,30.0 0 0 1 368.0,428.0 L368.0,702.0 Z" fill="none" stroke="#FFFFFF" stroke-opacity=".15" stroke-width="2"/>
      <path d="M446.0,702.0 L446.0,298.0 A30.0,30.0 0 0 1 476.0,268.0 L548.0,268.0 A30.0,30.0 0 0 1 578.0,298.0 L578.0,702.0 Z" fill="url(#graphite)"/>
      <path d="M446.0,702.0 L446.0,298.0 A30.0,30.0 0 0 1 476.0,268.0 L548.0,268.0 A30.0,30.0 0 0 1 578.0,298.0 L578.0,702.0 Z" fill="url(#round)"/>
      <path d="M446.0,702.0 L446.0,298.0 A30.0,30.0 0 0 1 476.0,268.0 L548.0,268.0 A30.0,30.0 0 0 1 578.0,298.0 L578.0,702.0 Z" fill="none" stroke="#FFFFFF" stroke-opacity=".15" stroke-width="2"/>
      <path d="M656.0,702.0 L656.0,522.0 A30.0,30.0 0 0 1 686.0,492.0 L758.0,492.0 A30.0,30.0 0 0 1 788.0,522.0 L788.0,702.0 Z" fill="url(#graphite)"/>
      <path d="M656.0,702.0 L656.0,522.0 A30.0,30.0 0 0 1 686.0,492.0 L758.0,492.0 A30.0,30.0 0 0 1 788.0,522.0 L788.0,702.0 Z" fill="url(#round)"/>
      <path d="M656.0,702.0 L656.0,522.0 A30.0,30.0 0 0 1 686.0,492.0 L758.0,492.0 A30.0,30.0 0 0 1 788.0,522.0 L788.0,702.0 Z" fill="none" stroke="#FFFFFF" stroke-opacity=".15" stroke-width="2"/>
      <path d="M236.0,702.0 L236.0,428.0 A30.0,30.0 0 0 1 266.0,398.0 L338.0,398.0 A30.0,30.0 0 0 1 368.0,428.0 L368.0,702.0 Z" fill="url(#bounce)"/>
      <path d="M446.0,702.0 L446.0,298.0 A30.0,30.0 0 0 1 476.0,268.0 L548.0,268.0 A30.0,30.0 0 0 1 578.0,298.0 L578.0,702.0 Z" fill="url(#bounce)"/>
      <path d="M656.0,702.0 L656.0,522.0 A30.0,30.0 0 0 1 686.0,492.0 L758.0,492.0 A30.0,30.0 0 0 1 788.0,522.0 L788.0,702.0 Z" fill="url(#bounce)"/>
    </g>

    <g id="highlight">
      <!-- one soft top light; no hard specular anywhere in this file -->
      <path d="M236.0,428.0 L236.0,428.0 A30.0,30.0 0 0 1 266.0,398.0 L338.0,398.0 A30.0,30.0 0 0 1 368.0,428.0 L368.0,428.0 Z" fill="url(#cap)"/>
      <path d="M446.0,298.0 L446.0,298.0 A30.0,30.0 0 0 1 476.0,268.0 L548.0,268.0 A30.0,30.0 0 0 1 578.0,298.0 L578.0,298.0 Z" fill="url(#cap)"/>
      <path d="M656.0,522.0 L656.0,522.0 A30.0,30.0 0 0 1 686.0,492.0 L758.0,492.0 A30.0,30.0 0 0 1 788.0,522.0 L788.0,522.0 Z" fill="url(#cap)"/>
      <!-- contact darkening where each bar presses into the gel -->
      <rect x="227.0" y="702.0" width="150.0" height="16.0" fill="url(#ao)"/>
      <rect x="437.0" y="702.0" width="150.0" height="16.0" fill="url(#ao)"/>
      <rect x="647.0" y="702.0" width="150.0" height="16.0" fill="url(#ao)"/>
    </g>

  </g>
</svg>
